<svg xmlns="http://www.w3.org/2000/svg" version="1.1" xmlns:xlink="http://www.w3.org/1999/xlink" xmlns:svgjs="http://svgjs.com/svgjs" width="2160" height="1080" preserveAspectRatio="none" viewBox="0 0 2160 1080"><g mask="url(&quot;#SvgjsMask1041&quot;)" fill="none"><rect width="2160" height="1080" x="0" y="0" fill="url(#SvgjsLinearGradient1042)"></rect><path d="M1692.622,668.171C1781.204,664.603,1848.803,598.787,1893.171,522.034C1937.589,445.193,1963.003,352.615,1919.873,275.044C1875.757,195.699,1783.406,160.962,1692.622,161.338C1602.567,161.711,1515.51,200.034,1468.611,276.914C1419.759,356.997,1415.386,457.991,1461.996,539.399C1508.885,621.295,1598.329,671.969,1692.622,668.171" fill="rgba(28, 83, 142, 0.4)" class="triangle-float3"></path><path d="M889.941,1149.161C984.091,1152.676,1079.923,1119.998,1130.125,1040.271C1183.45,955.585,1190.866,843.134,1134.867,760.193C1083.62,684.29,981.265,677.644,889.941,684.531C812.539,690.369,742.638,726.975,701.611,792.868C657.864,863.129,640.258,950.25,678.936,1023.424C719.945,1101.007,802.248,1145.887,889.941,1149.161" fill="rgba(28, 83, 142, 0.4)" class="triangle-float2"></path><path d="M258.542,1512.288C371.613,1512.518,491.04,1478.587,545.939,1379.738C599.689,1282.959,558.849,1168.249,502.557,1072.927C447.487,979.675,366.813,890.617,258.542,893.077C153.091,895.473,86.456,992.663,33.005,1083.595C-21.487,1176.298,-76.904,1283.408,-26.837,1378.573C25.586,1478.217,145.949,1512.059,258.542,1512.288" fill="rgba(28, 83, 142, 0.4)" class="triangle-float2"></path><path d="M1001.73,346.974C1080.412,344.213,1145.393,289.38,1181.387,219.36C1214.322,155.292,1208.516,79.401,1170.842,17.999C1134.922,-40.545,1070.408,-72.437,1001.73,-73.447C931.072,-74.487,862.805,-46.016,823.773,12.892C780.102,78.801,761.652,163.003,798.823,232.784C837.93,306.201,918.598,349.891,1001.73,346.974" fill="rgba(28, 83, 142, 0.4)" class="triangle-float1"></path><path d="M1002.596,934.193C1075.773,931.186,1132.681,877.808,1168.682,814.028C1203.962,751.527,1215.362,678.003,1183.51,613.687C1147.717,541.415,1083.203,481.311,1002.596,478.671C918.042,475.901,840.526,526.907,799.918,601.123C760.84,672.542,768.739,759.175,811.059,828.722C851.667,895.456,924.544,937.4,1002.596,934.193" fill="rgba(28, 83, 142, 0.4)" class="triangle-float1"></path><path d="M351.047,814.872C456.824,815.654,549.74,747.309,599.634,654.035C646.789,565.883,637.839,460.361,586.605,374.515C536.712,290.916,448.391,236.056,351.047,237.511C256.046,238.931,175.468,299.435,127.38,381.379C78.617,464.473,64.567,564.787,108.744,650.407C156.717,743.384,246.426,814.099,351.047,814.872" fill="rgba(28, 83, 142, 0.4)" class="triangle-float2"></path><path d="M1582.773,1363.515C1680.47,1364.503,1787.984,1345.403,1836.032,1260.332C1883.565,1176.173,1839.164,1077.686,1791.798,993.432C1743.09,906.792,1682.162,810.749,1582.773,809.838C1482.456,808.918,1415.276,901.595,1367,989.536C1321.043,1073.253,1290.506,1172.577,1338.233,1255.298C1385.978,1338.05,1487.24,1362.549,1582.773,1363.515" fill="rgba(28, 83, 142, 0.4)" class="triangle-float1"></path></g><defs><mask id="SvgjsMask1041"><rect width="2160" height="1080" fill="#ffffff"></rect></mask><linearGradient x1="12.5%" y1="-25%" x2="87.5%" y2="125%" gradientUnits="userSpaceOnUse" id="SvgjsLinearGradient1042"><stop stop-color="#0e2a47" offset="0"></stop><stop stop-color="#00459e" offset="1"></stop></linearGradient></defs></svg>